<svg width="294" height="247" viewBox="0 0 294 247" fill="none" xmlns="http://www.w3.org/2000/svg">
    <path d="M162.34 197.576L184.928 33.0277L208.602 25.8324L232.035 176.344L209.085 183.304L206.79 161.718L188.31 167.38L185.894 190.381L162.34 197.576ZM204.616 139.66L197.248 89.1748L190.122 144.142L204.616 139.66Z" fill="#fff"/>
    <path d="M38.6524 77.3792C49.4026 74.0764 69.3328 80.446 69.3328 101.796C69.3328 117.366 60.032 127.393 60.032 127.393C60.032 127.393 69.3328 131.875 69.3328 147.917C69.3328 161.482 60.032 172.098 60.032 172.098C60.032 172.098 69.3328 177.642 69.3328 191.915C69.3328 222.819 38.6524 235.204 38.6524 235.204L0 247V89.1748C0 89.1748 27.9022 80.6819 38.6524 77.3792ZM23.0707 104.981V126.921L36.7198 122.792C36.7198 122.792 45.4166 118.9 45.4166 109.581C45.4166 100.263 36.4782 100.97 36.4782 100.97L23.0707 104.981ZM23.0707 149.568V171.508L36.7198 167.38C36.7198 167.38 45.4166 163.487 45.4166 154.169C45.4166 144.85 36.4782 145.558 36.4782 145.558L23.0707 149.568ZM23.0707 194.863V216.803L36.7198 212.675C36.7198 212.675 45.4166 208.782 45.4166 199.464C45.4166 190.145 36.4782 190.853 36.4782 190.853L23.0707 194.863Z" fill="#fff"/>
    <path d="M84.673 63.3424V221.168L153.402 200.171V177.17L107.502 191.089V169.031L153.402 155.112V132.347L107.502 146.148V124.208L153.402 110.289V87.4054L107.502 101.324V79.3844L153.402 65.4656V42.5821L84.673 63.3424Z" fill="#fff"/>
    <path d="M248.463 171.862V36.8023L225.03 43.8797V20.8782L294 0V23.0014L271.171 29.9608V164.549L248.463 171.862Z" fill="#fff"/>
</svg>
